<?xml version="1.0" encoding="UTF-8"?>
<svg width="600" height="400" viewBox="0 0 600 400" fill="none" xmlns="http://www.w3.org/2000/svg">
    <!-- Background Shapes -->
    <path d="M50 200C50 150 100 100 150 100C200 100 250 150 250 200C250 250 200 300 150 300C100 300 50 250 50 200Z" fill="#E0F2FE" opacity="0.5"/>
    <path d="M350 150C350 100 400 50 450 50C500 50 550 100 550 150C550 200 500 250 450 250C400 250 350 200 350 150Z" fill="#BFDBFE" opacity="0.3"/>
    
    <!-- People Illustrations -->
    <!-- Person 1 -->
    <g transform="translate(150, 100)">
        <path d="M40 80C62 80 80 62 80 40C80 18 62 0 40 0C18 0 0 18 0 40C0 62 18 80 40 80Z" fill="#3B82F6"/>
        <path d="M10 100C10 89 19 80 30 80H50C61 80 70 89 70 100V120H10V100Z" fill="#2563EB"/>
        <rect x="20" y="30" width="40" height="20" rx="10" fill="white"/>
    </g>
    
    <!-- Person 2 -->
    <g transform="translate(350, 150)">
        <path d="M40 80C62 80 80 62 80 40C80 18 62 0 40 0C18 0 0 18 0 40C0 62 18 80 40 80Z" fill="#60A5FA"/>
        <path d="M10 100C10 89 19 80 30 80H50C61 80 70 89 70 100V120H10V100Z" fill="#3B82F6"/>
        <rect x="20" y="30" width="40" height="20" rx="10" fill="white"/>
    </g>
    
    <!-- Floating Elements -->
    <circle cx="250" cy="50" r="20" fill="#93C5FD" opacity="0.6"/>
    <circle cx="450" cy="300" r="15" fill="#60A5FA" opacity="0.4"/>
    <rect x="150" y="250" width="30" height="30" rx="5" fill="#BFDBFE" opacity="0.5"/>
    
    <!-- Connecting Lines -->
    <path d="M200 180L400 230" stroke="#93C5FD" stroke-width="2" stroke-dasharray="4 4"/>
    <path d="M300 150L450 100" stroke="#60A5FA" stroke-width="2" stroke-dasharray="4 4"/>
</svg>
 